<svg id="visual" viewBox="0 0 1024 56" width="1024" height="56" xmlns="http://www.w3.org/2000/svg" xmlns:xlink="http://www.w3.org/1999/xlink" version="1.1"><rect width="1024" height="56" fill="#2E3440"></rect><g><g transform="translate(761 40)"><path d="M0 -4.3L3.7 -2.1L3.7 2.1L0 4.3L-3.7 2.1L-3.7 -2.1Z" fill="#81A1C1"></path></g><g transform="translate(564 28)"><path d="M0 -2L1.7 -1L1.7 1L0 2L-1.7 1L-1.7 -1Z" fill="#81A1C1"></path></g><g transform="translate(383 21)"><path d="M0 -2L1.7 -1L1.7 1L0 2L-1.7 1L-1.7 -1Z" fill="#81A1C1"></path></g><g transform="translate(203 15)"><path d="M0 -3L2.6 -1.5L2.6 1.5L0 3L-2.6 1.5L-2.6 -1.5Z" fill="#81A1C1"></path></g><g transform="translate(841 43)"><path d="M0 -2L1.7 -1L1.7 1L0 2L-1.7 1L-1.7 -1Z" fill="#81A1C1"></path></g><g transform="translate(139 51)"><path d="M0 -1L0.9 -0.5L0.9 0.5L0 1L-0.9 0.5L-0.9 -0.5Z" fill="#81A1C1"></path></g><g transform="translate(717 34)"><path d="M0 -2L1.7 -1L1.7 1L0 2L-1.7 1L-1.7 -1Z" fill="#81A1C1"></path></g><g transform="translate(480 8)"><path d="M0 -3L2.6 -1.5L2.6 1.5L0 3L-2.6 1.5L-2.6 -1.5Z" fill="#81A1C1"></path></g><g transform="translate(459 55)"><path d="M0 -3L2.6 -1.5L2.6 1.5L0 3L-2.6 1.5L-2.6 -1.5Z" fill="#81A1C1"></path></g><g transform="translate(708 53)"><path d="M0 -3L2.6 -1.5L2.6 1.5L0 3L-2.6 1.5L-2.6 -1.5Z" fill="#81A1C1"></path></g><g transform="translate(697 45)"><path d="M0 -1L0.9 -0.5L0.9 0.5L0 1L-0.9 0.5L-0.9 -0.5Z" fill="#81A1C1"></path></g><g transform="translate(265 43)"><path d="M0 -1L0.9 -0.5L0.9 0.5L0 1L-0.9 0.5L-0.9 -0.5Z" fill="#81A1C1"></path></g><g transform="translate(340 17)"><path d="M0 -3L2.6 -1.5L2.6 1.5L0 3L-2.6 1.5L-2.6 -1.5Z" fill="#81A1C1"></path></g><g transform="translate(919 50)"><path d="M0 -1L0.9 -0.5L0.9 0.5L0 1L-0.9 0.5L-0.9 -0.5Z" fill="#81A1C1"></path></g><g transform="translate(191 24)"><path d="M0 -3L2.6 -1.5L2.6 1.5L0 3L-2.6 1.5L-2.6 -1.5Z" fill="#81A1C1"></path></g><g transform="translate(631 31)"><path d="M0 -1L0.9 -0.5L0.9 0.5L0 1L-0.9 0.5L-0.9 -0.5Z" fill="#81A1C1"></path></g><g transform="translate(23 27)"><path d="M0 -1L0.9 -0.5L0.9 0.5L0 1L-0.9 0.5L-0.9 -0.5Z" fill="#81A1C1"></path></g><g transform="translate(814 15)"><path d="M0 -3L2.6 -1.5L2.6 1.5L0 3L-2.6 1.5L-2.6 -1.5Z" fill="#81A1C1"></path></g><g transform="translate(664 29)"><path d="M0 -3L2.6 -1.5L2.6 1.5L0 3L-2.6 1.5L-2.6 -1.5Z" fill="#81A1C1"></path></g><g transform="translate(686 26)"><path d="M0 -2L1.7 -1L1.7 1L0 2L-1.7 1L-1.7 -1Z" fill="#81A1C1"></path></g><g transform="translate(844 30)"><path d="M0 -2L1.7 -1L1.7 1L0 2L-1.7 1L-1.7 -1Z" fill="#81A1C1"></path></g><g transform="translate(461 19)"><path d="M0 -1L0.9 -0.5L0.9 0.5L0 1L-0.9 0.5L-0.9 -0.5Z" fill="#81A1C1"></path></g><g transform="translate(633 5)"><path d="M0 -1L0.9 -0.5L0.9 0.5L0 1L-0.9 0.5L-0.9 -0.5Z" fill="#81A1C1"></path></g><g transform="translate(422 3)"><path d="M0 -2L1.7 -1L1.7 1L0 2L-1.7 1L-1.7 -1Z" fill="#81A1C1"></path></g><g transform="translate(921 24)"><path d="M0 -2L1.7 -1L1.7 1L0 2L-1.7 1L-1.7 -1Z" fill="#81A1C1"></path></g><g transform="translate(910 16)"><path d="M0 -2L1.7 -1L1.7 1L0 2L-1.7 1L-1.7 -1Z" fill="#81A1C1"></path></g><g transform="translate(1007 47)"><path d="M0 -2L1.7 -1L1.7 1L0 2L-1.7 1L-1.7 -1Z" fill="#81A1C1"></path></g><g transform="translate(946 7)"><path d="M0 -3L2.6 -1.5L2.6 1.5L0 3L-2.6 1.5L-2.6 -1.5Z" fill="#81A1C1"></path></g><g transform="translate(70 33)"><path d="M0 -2L1.7 -1L1.7 1L0 2L-1.7 1L-1.7 -1Z" fill="#81A1C1"></path></g><g transform="translate(988 24)"><path d="M0 -2L1.7 -1L1.7 1L0 2L-1.7 1L-1.7 -1Z" fill="#81A1C1"></path></g><g transform="translate(655 8)"><path d="M0 -2L1.7 -1L1.7 1L0 2L-1.7 1L-1.7 -1Z" fill="#81A1C1"></path></g><g transform="translate(796 11)"><path d="M0 -2L1.7 -1L1.7 1L0 2L-1.7 1L-1.7 -1Z" fill="#81A1C1"></path></g><g transform="translate(764 15)"><path d="M0 -3L2.6 -1.5L2.6 1.5L0 3L-2.6 1.5L-2.6 -1.5Z" fill="#81A1C1"></path></g><g transform="translate(287 29)"><path d="M0 -1L0.9 -0.5L0.9 0.5L0 1L-0.9 0.5L-0.9 -0.5Z" fill="#81A1C1"></path></g></g></svg>